<svg width="19" height="20" viewBox="0 0 19 20" fill="none" xmlns="http://www.w3.org/2000/svg">
<path d="M18.6311 7.41939C18.5734 7.24958 18.4673 7.10037 18.3258 6.99018C18.1843 6.87999 18.0137 6.81365 17.8349 6.79934L12.6057 6.38383L10.3429 1.37482C10.2709 1.21349 10.1536 1.07646 10.0054 0.980278C9.85721 0.884093 9.68432 0.832861 9.50762 0.832764C9.33093 0.832667 9.15798 0.883709 9.00966 0.979732C8.86133 1.07575 8.74397 1.21265 8.67173 1.3739L6.40891 6.38383L1.17976 6.79934C1.00407 6.81326 0.836105 6.8775 0.695967 6.98438C0.555829 7.09125 0.449449 7.23624 0.389554 7.40199C0.329659 7.56774 0.318785 7.74724 0.358232 7.91901C0.39768 8.09078 0.485779 8.24755 0.61199 8.37056L4.4763 12.1376L3.10962 18.0556C3.06812 18.2348 3.08142 18.4222 3.14779 18.5937C3.21417 18.7652 3.33055 18.9128 3.48183 19.0173C3.63312 19.1218 3.81233 19.1785 3.9962 19.1799C4.18008 19.1813 4.36013 19.1274 4.51299 19.0252L9.50733 15.6956L14.5017 19.0252C14.6579 19.1289 14.8422 19.1823 15.0297 19.1782C15.2171 19.1741 15.3989 19.1126 15.5504 19.0022C15.702 18.8917 15.816 18.7374 15.8773 18.5602C15.9386 18.3829 15.9441 18.1912 15.8931 18.0107L14.2155 12.1404L18.3761 8.39625C18.6485 8.15043 18.7485 7.76702 18.6311 7.41939Z" fill="#F3CD03"/>
</svg>
